<?xml version="1.0" standalone="no"?>
<!DOCTYPE svg PUBLIC "-//W3C//DTD SVG 20010904//EN"
 "http://www.w3.org/TR/2001/REC-SVG-20010904/DTD/svg10.dtd">
<svg version="1.0" xmlns="http://www.w3.org/2000/svg"
 width="119.000000pt" height="119.000000pt" viewBox="0 0 119.000000 119.000000"
 preserveAspectRatio="xMidYMid meet">
<metadata>
Created by potrace 1.14, written by Peter Selinger 2001-2017
</metadata>
<g transform="translate(0.000000,119.000000) scale(0.100000,-0.100000)"
fill="#000000" stroke="none">
<path d="M507 1129 c-38 -21 -73 -39 -78 -39 -5 0 -9 -4 -9 -10 0 -5 -4 -9 -8
-7 -5 1 -33 -14 -63 -33 -30 -19 -56 -33 -58 -31 -2 1 -7 -2 -10 -7 -3 -5 -26
-19 -51 -32 -25 -12 -66 -36 -91 -53 l-47 -32 1 -281 0 -281 98 -67 c54 -36
102 -66 108 -66 5 0 11 -3 13 -7 2 -5 39 -26 83 -49 44 -22 98 -52 120 -66 78
-49 80 -49 105 -28 13 11 27 20 33 20 9 0 32 13 142 83 28 18 106 62 175 98
l125 66 3 286 2 286 -22 14 c-13 8 -57 36 -98 63 -86 55 -100 60 -100 34 0
-20 -20 -71 -31 -80 -3 -3 -11 -15 -18 -27 -13 -25 -8 -31 58 -75 l35 -23 -1
-188 c-1 -209 3 -196 -75 -234 -21 -10 -38 -21 -38 -25 0 -5 -4 -8 -9 -8 -5 0
-51 -25 -102 -55 -95 -55 -135 -67 -145 -41 -3 8 -18 17 -33 21 -15 3 -39 17
-55 30 -15 13 -43 29 -62 35 -19 7 -34 16 -34 21 0 5 -4 9 -10 9 -13 0 -84 49
-93 65 -4 8 -8 94 -8 192 -1 170 0 178 21 200 12 13 26 21 30 18 4 -3 13 2 20
10 13 15 174 105 189 105 5 0 0 -35 -11 -77 -11 -42 -21 -88 -23 -102 -2 -14
-12 -53 -21 -86 -21 -77 -24 -92 -30 -137 -4 -34 -3 -37 18 -32 13 2 53 6 91
9 l67 5 0 -29 c0 -16 -4 -32 -9 -35 -10 -7 -34 -156 -25 -156 6 0 52 75 82
135 16 30 40 70 55 87 58 73 96 128 99 144 4 22 -26 27 -72 12 -32 -11 -78
-13 -87 -4 -2 2 15 52 38 112 22 60 42 114 43 120 1 7 7 18 13 25 11 14 22 45
23 64 1 6 8 21 16 33 9 13 14 24 12 25 -2 1 -17 12 -35 25 -18 12 -37 22 -43
22 -7 0 -31 16 -54 35 -24 19 -54 35 -67 34 -13 0 -55 -18 -92 -40z"/>
</g>
</svg>
